<svg xmlns="http://www.w3.org/2000/svg" xmlns:xlink="http://www.w3.org/1999/xlink" fill="none" version="1.1" width="48" height="48" viewBox="0 0 48 48"><defs><clipPath id="master_svg0_524_59058"><rect x="0" y="0" width="48" height="48" rx="0"/></clipPath></defs><g style="opacity:0.30000001192092896;" clip-path="url(#master_svg0_524_59058)"><ellipse cx="24" cy="10" rx="7" ry="7" fill="#FFFFFF" fill-opacity="1" style="opacity:0.30000001192092896;"/><path d="M39.39828678125,42.829093875L24.75240478125,42.829093875C23.07757758125,42.829093875,21.510770781250002,41.931144875,20.66539288125,40.489436875L13.91345596125,28.975057875C12.69685888125,26.898645875,13.13269066825,24.287732875,14.941828481249999,22.715650875L15.09191848125,22.572179875C16.85217718125,21.122413875,19.567226381250002,21.175128875,21.26839068125,22.624799875L21.26839068125,9.838613975000001C21.26839068125,7.2131674750000006,23.40399378125,5.076171875,26.02948978125,5.076171875C27.31722078125,5.076171875,28.51338378125,5.576519785,29.41138078125,6.481088775C30.31331278125,7.392181675,30.80315378125,8.602206975,30.79120778125,9.885958174999999L30.71618678125,17.639838875000002L40.57286078125,18.320542875C42.68351978125,18.529872875000002,44.24365978125,20.261303875,44.24365978125,22.346925875L44.144942781249995,38.094283875C44.12786678125,40.703994875,41.998786781250004,42.829093875,39.39828678125,42.829093875ZM16.882636981250002,24.594531875L16.76012798125,24.707732875C15.892494181250001,25.422685875,15.67390628125,26.644609875,16.24140878125,27.610910875L22.991953881249998,39.125289875C23.362022781249998,39.755916875,24.01898378125,40.131263875,24.752403781250003,40.131263875L39.39828478125,40.131263875C40.52148778125,40.131263875,41.44178978125,39.210868875,41.44836078125,38.078548875L41.54722178125,22.340303875C41.54722178125,21.651731875,41.03099478125,21.075067875000002,40.34501278125,21.006521875L30.52397878125,20.328454875C29.107264781250002,20.231032875,28.00583678125,19.039379875,28.01893178125,17.613405874999998L28.09395178125,9.859573874999999C28.09922778125,9.299986375,27.88726078125,8.774647275,27.494886781250003,8.380979074999999C27.107837781249998,7.989900875,26.59161278125,7.773951575,26.04396778125,7.773951575C24.89059278125,7.773951575,23.96491878125,8.699578275,23.96491878125,9.838563875L23.96491878125,30.951362875L19.84768678125,25.026334875C19.190725781250002,24.121862875,17.80562018125,23.896701875,16.882636981250002,24.594531875Z" fill="#FFFFFF" fill-opacity="1" style="mix-blend-mode:passthrough" transform="matrix(0.9734182953834534,0.229034423828125,-0.229034423828125,0.9734182953834534,1.5142156574584078,-2.8945166532648727)"/><path d="M9.499682409375,4.9997001C9.499682409375,5.3974453,9.341678609375,5.7788999,9.060430509375,6.0601482L6.621302609375,8.4997001L14.500000109375,8.5L14.500000109375,8.5C15.328260109375,8.5002999,15.999695109375,9.171738600000001,15.999695109375,10C15.999695109375,10.828261399999999,15.328260109375,11.5,14.500000109375,11.5L14.500000109375,11.5L6.621302109375,11.4997001L9.060642209375,13.939041C9.341678609375,14.220501,9.499682409375,14.601955,9.499682409375,14.999701C9.499682409375,15.827961,8.828243709375,16.499401,7.999982309375,16.499401C7.602236709375,16.499401,7.220781809375,16.341396,6.939533709375,16.060147999999998L2.292974309375,11.4139132C1.511879209375,10.632873100000001,1.511857269375,9.3665047,2.292925109375,8.5854368L6.939322509375,3.93903995C7.220782309375,3.65800369,7.602237209375,3.5,7.999982309375,3.5C8.828243709375,3.5,9.499682409375,4.17143857,9.499682409375,4.9997001Z" fill-rule="evenodd" fill="#FFFFFF" fill-opacity="1"/><path d="M55.74211405,4.9997001C55.74211405,5.3974453,55.58411025,5.7788999,55.302862149999996,6.0601482L52.86373425,8.4997001L60.74243175,8.5L60.74243175,8.5C61.57069175,8.5002999,62.24212675,9.171738600000001,62.24212675,10C62.24212675,10.828261399999999,61.57069175,11.5,60.74243175,11.5L60.74243175,11.5L52.86373375,11.4997001L55.303073850000004,13.939041C55.58411025,14.220501,55.74211405,14.601955,55.74211405,14.999701C55.74211405,15.827961,55.07067535,16.499401,54.24241395,16.499401C53.84466835,16.499401,53.46321345,16.341396,53.18196535,16.060147999999998L48.53540595,11.4139132C47.75431085,10.632873100000001,47.75428891,9.3665047,48.53535675,8.5854368L53.18175415,3.93903995C53.46321395,3.65800369,53.84466885,3.5,54.24241395,3.5C55.07067535,3.5,55.74211405,4.17143857,55.74211405,4.9997001Z" fill-rule="evenodd" fill="#FFFFFF" fill-opacity="1" transform="matrix(-1,0,0,1,94.2421875,0)"/></g></svg>